<?xml version="1.0" standalone="no"?>
<!DOCTYPE svg PUBLIC "-//W3C//DTD SVG 20010904//EN"
 "http://www.w3.org/TR/2001/REC-SVG-20010904/DTD/svg10.dtd">
<svg version="1.0" xmlns="http://www.w3.org/2000/svg"
 width="1024.000000pt" height="1024.000000pt" viewBox="0 0 1024.000000 1024.000000"
 preserveAspectRatio="xMidYMid meet">
<rect width="90%" height="90%" fill="#000000" />

<g transform="translate(0.000000,1024.000000) scale(0.100000,-0.100000)"
fill="#ffffff" stroke="none">
<path d="M0 5120 l0 -5120 5120 0 5120 0 0 5120 0 5120 -5120 0 -5120 0 0
-5120z m7662 2701 l3 -308 262 157 263 158 102 -171 c57 -95 104 -174 106
-178 1 -3 -117 -75 -263 -159 -146 -85 -265 -157 -265 -160 0 -3 118 -72 261
-155 143 -82 262 -152 265 -156 5 -8 -193 -343 -205 -347 -4 -1 -125 66 -267
151 l-259 154 -3 -304 -2 -303 -210 0 -210 0 0 305 0 304 -47 -28 c-340 -201
-477 -281 -482 -281 -11 0 -211 344 -203 352 4 3 124 73 267 154 143 81 262
150 265 152 3 3 1 6 -5 8 -10 4 -526 304 -534 310 -4 3 208 354 215 354 2 0
119 -70 260 -155 141 -85 258 -155 260 -155 2 0 4 137 4 305 l0 305 210 0 210
0 2 -309z m-2028 -497 c-46 -80 -84 -149 -84 -153 0 -4 29 -47 65 -96 36 -49
65 -92 65 -95 0 -3 -689 -4 -1530 -2 l-1530 2 2 -2003 3 -2004 30 -49 c19 -30
49 -60 79 -79 l49 -30 2224 -3 2223 -2 0 1455 0 1455 250 0 250 0 2 -1705 3
-1705 -2555 0 c-2830 0 -2625 -5 -2770 67 -54 26 -95 57 -150 112 -86 87 -129
164 -160 285 -20 78 -20 111 -20 2388 l0 2308 1819 0 1819 0 -84 -146z"/>
</g>

<!-- <circle cx="512" cy="512" r="500" fill="none" stroke="#000000" stroke-width="26"/> -->

</svg>
