<?xml version="1.0" standalone="no"?>
<!DOCTYPE svg PUBLIC "-//W3C//DTD SVG 20010904//EN"
 "http://www.w3.org/TR/2001/REC-SVG-20010904/DTD/svg10.dtd">
<svg version="1.0" xmlns="http://www.w3.org/2000/svg"
 width="200.000000pt" height="200.000000pt" viewBox="0 0 200.000000 200.000000"
 preserveAspectRatio="xMidYMid meet">

<g transform="translate(0.000000,200.000000) scale(0.100000,-0.100000)"
fill="#000000" stroke="#ffffff">
<path d="M808 1914 c-3 -24 -10 -28 -69 -44 -289 -75 -545 -332 -629 -632 -43
-155 -45 -333 -4 -493 24 -95 105 -253 172 -337 241 -302 645 -420 1017 -297
319 106 551 376 616 716 15 83 6 318 -16 398 -27 98 -107 254 -172 335 -126
158 -295 269 -487 319 -94 25 -236 39 -236 24 0 -6 25 -28 56 -49 l56 -38 -24
-19 c-13 -11 -36 -29 -52 -42 l-28 -22 63 -7 c294 -32 537 -228 636 -511 25
-73 28 -93 28 -220 0 -104 -5 -157 -18 -204 -67 -244 -261 -443 -497 -511
-102 -30 -289 -38 -387 -17 -145 31 -255 91 -359 197 -256 260 -283 679 -64
974 87 118 239 224 364 255 42 10 50 10 60 -4 10 -15 23 -8 99 56 48 40 86 77
84 82 -1 5 -49 34 -104 64 l-102 54 -3 -27z"/>
<path d="M1092 1599 c-113 -22 -199 -98 -232 -207 -11 -35 -20 -82 -20 -103 0
-38 -1 -39 -35 -39 -57 0 -101 -23 -114 -60 -17 -49 -14 -67 17 -100 25 -28
51 -37 114 -39 16 -1 17 -27 20 -327 l3 -326 33 -29 c52 -47 131 -37 165 21
15 25 17 67 17 344 l0 316 75 0 c68 0 77 2 107 29 27 24 33 36 33 71 0 35 -6
47 -33 71 -30 27 -39 29 -108 29 l-77 0 6 42 c8 61 35 90 106 115 83 28 101
46 101 97 0 53 -21 83 -68 96 -42 11 -50 11 -110 -1z"/>
</g>
</svg>
