<?xml version="1.0" standalone="no"?>
<!DOCTYPE svg PUBLIC "-//W3C//DTD SVG 20010904//EN"
 "http://www.w3.org/TR/2001/REC-SVG-20010904/DTD/svg10.dtd">
<svg version="1.0" xmlns="http://www.w3.org/2000/svg"
 width="1280.000000pt" height="720.000000pt" viewBox="0 0 1280.000000 720.000000"
 preserveAspectRatio="xMidYMid meet">

<g transform="translate(0.000000,720.000000) scale(0.100000,-0.100000)"
fill="#000000" stroke="none">
<path d="M6308 5785 c-4 -5 -53 -12 -109 -16 -134 -12 -427 -73 -479 -100 -8
-4 -49 -20 -90 -35 -251 -90 -506 -254 -717 -461 -187 -183 -314 -357 -427
-587 -55 -112 -136 -318 -136 -347 0 -17 30 -9 82 24 253 159 599 236 932 207
l145 -13 70 65 c170 158 380 261 616 304 120 21 327 17 435 -9 170 -41 327
-110 441 -193 40 -30 67 -42 88 -42 27 1 30 4 25 21 -4 13 -2 17 5 13 16 -10
14 -44 -3 -48 -9 -2 20 -39 75 -96 49 -52 89 -90 89 -85 0 5 -4 13 -9 19 -6 5
-4 14 4 21 11 10 13 6 10 -27 -3 -28 2 -45 17 -62 11 -13 27 -36 35 -52 12
-23 17 -26 24 -15 6 9 7 4 3 -15 -5 -20 -4 -27 4 -22 8 5 10 2 6 -8 -3 -9 -2
-16 4 -16 5 0 12 7 16 15 3 8 11 15 17 15 8 0 6 -7 -4 -18 -21 -22 -21 -29 -3
-64 8 -14 19 -42 26 -63 6 -20 20 -44 30 -53 9 -9 20 -28 24 -42 3 -14 3 -19
0 -12 -3 6 -10 12 -14 12 -5 0 -3 -19 5 -41 23 -64 36 -160 36 -272 1 -109 5
-117 52 -117 15 0 27 -4 27 -9 0 -5 26 -17 58 -25 31 -9 80 -27 108 -40 33
-16 56 -21 65 -15 23 15 35 9 15 -6 -18 -14 -18 -15 -2 -15 9 0 14 -4 11 -10
-3 -5 -2 -10 4 -10 5 0 31 -20 57 -44 29 -28 53 -42 63 -39 12 4 13 2 3 -4 -9
-7 -4 -20 23 -56 19 -25 35 -50 35 -54 0 -5 9 -25 20 -45 38 -72 74 -283 52
-311 -15 -19 -23 -96 -12 -117 7 -12 7 -21 0 -25 -5 -3 -10 2 -11 12 0 14 -2
15 -6 3 -3 -8 -19 -43 -35 -77 -16 -34 -29 -65 -29 -67 0 -3 -20 -24 -44 -47
-34 -31 -44 -47 -40 -63 3 -12 2 -15 -1 -8 -8 17 -27 15 -21 -2 4 -10 1 -13
-8 -10 -8 3 -12 -1 -12 -13 2 -12 -4 -17 -16 -15 -10 2 -30 -6 -45 -16 -15
-11 -38 -23 -52 -27 -14 -4 -34 -13 -45 -20 -57 -36 -120 -39 -770 -45 l-640
-6 565 -3 c311 -2 578 -6 595 -10 16 -3 -234 -5 -556 -3 l-585 3 4 -35 4 -36
552 -3 551 -2 -552 -3 -552 -2 -1 -405 c0 -223 1 -406 2 -407 2 -1 251 -5 553
-8 l550 -6 -558 0 c-306 1 -557 -2 -557 -6 0 -13 1085 -9 1165 3 39 6 93 11
122 10 35 0 57 5 68 15 9 10 29 15 53 13 48 -3 110 8 197 34 39 11 75 21 80
23 6 1 37 14 70 29 50 24 57 29 40 36 -31 12 -38 10 -31 -6 8 -21 -1 -19 -32
10 -15 14 -21 25 -15 25 7 0 15 -5 18 -11 4 -6 14 -8 22 -5 9 4 30 1 48 -6 31
-11 38 -9 105 32 52 31 68 46 58 52 -9 6 -6 7 9 3 30 -8 101 43 81 58 -9 6 -8
7 5 3 25 -8 43 4 26 16 -10 7 -8 8 7 4 13 -4 27 1 39 14 10 11 13 20 7 20 -6
0 -14 -4 -17 -10 -10 -16 -25 -12 -19 5 4 8 19 15 35 15 21 0 45 17 100 70 39
39 68 74 64 78 -4 4 -10 1 -12 -5 -3 -7 -9 -13 -15 -13 -6 0 -3 9 7 20 12 13
22 17 28 11 10 -10 72 61 123 140 16 24 31 46 34 49 3 3 12 19 21 35 8 17 21
39 27 50 20 36 69 149 88 205 10 30 22 61 27 68 13 16 2 26 -19 18 -10 -4 -14
-13 -11 -25 2 -10 1 -25 -4 -32 -6 -9 -9 0 -9 26 0 23 -5 46 -12 53 -9 9 -9
12 -1 12 7 0 15 -5 18 -10 5 -8 12 -7 22 1 11 10 16 10 22 1 4 -7 12 21 19 61
6 40 14 81 18 90 3 10 1 17 -5 17 -6 0 -11 -8 -11 -18 0 -27 -10 -33 -26 -17
-18 18 -18 26 1 19 9 -4 16 2 19 18 21 99 22 124 14 253 -3 54 -3 68 2 35 l7
-55 0 60 c1 33 -3 71 -7 85 l-8 25 -2 -25 c-1 -14 -3 -20 -6 -15 -2 6 0 30 5
55 7 38 9 40 11 15 1 -16 6 -39 11 -50 7 -14 7 -7 3 25 -9 61 -10 67 -20 125
l-8 50 -8 -35 c-6 -29 -7 -27 -4 15 4 57 -4 97 -19 95 -5 -1 -11 3 -13 9 -2 6
1 11 6 11 5 0 7 11 4 25 -3 16 -11 25 -23 25 -15 0 -19 -6 -17 -29 1 -16 -4
-36 -10 -44 -9 -10 -9 -17 -2 -20 6 -3 5 -4 -2 -3 -7 1 -15 11 -16 21 -2 9 0
15 6 11 12 -7 9 124 -3 145 -8 12 -6 12 8 1 11 -10 14 -23 10 -43 -4 -23 -2
-29 12 -29 13 0 15 6 10 31 -4 17 -13 42 -21 57 -8 15 -14 32 -14 39 0 6 -4
14 -9 18 -12 7 -41 -22 -37 -38 1 -7 1 -9 -1 -5 -2 4 -11 4 -20 1 -13 -5 -14
-3 -5 12 7 13 7 27 -1 44 -16 37 -16 37 -33 15 -8 -10 -13 -13 -9 -6 3 6 1 12
-4 12 -6 0 -11 9 -11 19 0 20 14 22 41 6 16 -10 34 -43 31 -57 -3 -11 10 -10
28 2 12 7 12 12 0 34 -7 14 -18 26 -24 26 -20 0 -39 18 -31 29 5 9 11 7 21 -6
10 -12 8 -4 -3 22 -10 22 -23 45 -29 50 -7 6 -24 30 -39 55 -16 25 -31 47 -35
50 -3 3 -14 16 -23 30 -33 47 -180 189 -190 183 -6 -3 -7 -2 -4 4 6 10 -36 53
-52 53 -5 0 -12 7 -15 16 -4 9 -13 14 -21 10 -8 -3 -14 0 -12 6 1 6 -4 13 -10
15 -7 3 -13 -1 -13 -8 0 -7 -11 -2 -25 11 -28 26 -35 11 -7 -16 16 -17 16 -18
-1 -11 -10 4 -23 7 -28 7 -6 0 -9 8 -7 18 1 9 -1 23 -5 30 -5 7 0 23 14 40
l22 27 -6 -25 c-4 -17 0 -33 13 -50 14 -18 20 -21 20 -9 0 9 -3 19 -7 23 -5 4
-8 11 -8 14 0 21 -30 108 -69 198 -14 34 -26 66 -26 72 0 5 -9 12 -20 15 -11
3 -26 22 -36 46 -9 22 -21 39 -26 38 -6 -1 -13 4 -16 12 -3 9 0 11 8 6 9 -5
11 -1 6 16 -3 13 6 0 19 -30 14 -29 28 -51 31 -48 9 8 -90 191 -154 285 -41
59 -61 79 -49 47 4 -8 2 -17 -3 -20 -5 -3 -7 8 -5 25 3 21 -1 33 -10 37 -8 3
-15 10 -15 17 0 6 -32 47 -72 91 -61 68 -77 80 -103 79 -18 -1 -21 1 -7 3 25
5 31 23 7 23 -8 0 -15 5 -15 11 0 11 -9 21 -81 84 -193 170 -430 312 -662 397
-132 48 -174 60 -327 93 -155 33 -477 65 -492 50z m1498 -576 c8 -13 -13 -36
-23 -24 -5 4 -2 10 6 13 11 4 11 6 0 13 -9 6 -10 9 -2 9 6 0 15 -5 19 -11z
m-36 -54 c0 -8 -7 -15 -16 -15 -10 0 -14 -6 -11 -14 4 -10 0 -12 -14 -9 -16 5
-17 8 -7 22 26 33 48 40 48 16z m83 0 c-3 -13 -53 -20 -53 -7 0 15 13 23 35
20 11 -2 19 -7 18 -13z m-233 -135 c-34 -34 -64 -60 -66 -57 -3 2 23 32 57 66
34 34 64 60 66 57 3 -2 -23 -32 -57 -66z m293 55 c-3 -9 -8 -14 -10 -11 -3 3
-2 9 2 15 9 16 15 13 8 -4z m41 -14 c17 -18 16 -19 -8 -17 -14 0 -26 2 -26 3
0 4 12 33 15 33 1 0 10 -9 19 -19z m-271 -58 c-9 -23 -23 -37 -45 -46 -12 -4
-15 -2 -11 9 3 7 11 14 19 14 8 0 14 6 14 14 0 12 6 18 27 25 1 1 -1 -7 -4
-16z m337 -14 c0 -6 -4 -7 -10 -4 -5 3 -10 11 -10 16 0 6 5 7 10 4 6 -3 10
-11 10 -16z m-110 -19 c0 -5 -4 -10 -10 -10 -5 0 -10 5 -10 10 0 6 5 10 10 10
6 0 10 -4 10 -10z m98 -12 c-2 -7 3 -12 11 -10 19 4 50 -26 48 -49 -1 -20 -23
-33 -38 -23 -5 3 -9 0 -9 -5 0 -6 -7 -11 -15 -11 -8 0 -15 5 -15 10 0 6 3 9 8
9 19 -3 23 2 12 16 -8 10 -9 15 -2 15 6 0 15 -8 21 -17 5 -10 13 -15 16 -11
13 12 -4 38 -30 48 -25 9 -31 21 -18 33 10 10 13 8 11 -5z m-548 -98 c-34 -34
-64 -60 -66 -57 -3 2 23 32 57 66 34 34 64 60 66 57 3 -2 -23 -32 -57 -66z
m664 -6 c9 -23 7 -31 -4 -14 -5 8 -12 11 -16 7 -4 -4 -2 -13 4 -19 7 -7 12
-19 12 -27 0 -11 -5 -9 -16 7 -9 13 -13 31 -9 42 8 24 21 26 29 4z m-601 -11
c-9 -23 -23 -37 -45 -46 -12 -4 -15 -2 -11 9 3 7 11 14 19 14 8 0 14 6 14 14
0 12 6 18 27 25 1 1 -1 -7 -4 -16z m529 -20 c-6 -3 -9 -9 -6 -14 4 -6 11 -6
19 1 10 8 15 8 21 -1 4 -7 3 -9 -4 -5 -6 3 -14 2 -17 -4 -5 -8 -11 -7 -21 1
-11 9 -12 15 -3 26 7 7 15 11 18 7 3 -4 0 -9 -7 -11z m98 -13 c0 -5 -5 -10
-11 -10 -5 0 -7 5 -4 10 3 6 8 10 11 10 2 0 4 -4 4 -10z m-853 -114 c-36 -36
-67 -63 -70 -60 -3 3 25 35 61 72 37 37 68 64 70 60 2 -3 -26 -36 -61 -72z
m899 44 c9 -11 10 -20 3 -30 -9 -12 -10 -12 -5 3 3 11 1 17 -7 16 -27 -3 -37
2 -36 19 0 10 3 12 6 5 8 -22 21 -14 17 10 -2 12 -1 15 2 7 4 -8 13 -22 20
-30z m-829 -46 c-3 -3 -12 -4 -19 -1 -8 3 -5 6 6 6 11 1 17 -2 13 -5z m-23
-35 c-3 -5 -10 -7 -15 -3 -5 3 -7 10 -3 15 3 5 10 7 15 3 5 -3 7 -10 3 -15z
m884 2 c3 -8 -1 -12 -9 -9 -7 2 -15 10 -17 17 -3 8 1 12 9 9 7 -2 15 -10 17
-17z m-903 -21 c10 -11 16 -20 13 -20 -3 0 -13 9 -23 20 -10 11 -16 20 -13 20
3 0 13 -9 23 -20z m-28 -57 c-4 -3 -1 -13 6 -22 11 -14 10 -14 -5 -2 -16 12
-16 31 -1 31 4 0 3 -3 0 -7z m893 -14 c-11 -8 -12 -12 -2 -16 6 -2 12 -17 12
-31 -1 -26 -1 -26 -15 7 -19 43 -19 51 3 51 15 0 15 -2 2 -11z m65 1 c3 -5 1
-10 -4 -10 -6 0 -11 5 -11 10 0 6 2 10 4 10 3 0 8 -4 11 -10z m-1005 -35 c13
-14 19 -25 13 -25 -6 0 -16 7 -23 15 -7 8 -19 15 -26 15 -8 0 -14 5 -14 10 0
18 26 10 50 -15z m1032 -17 c8 -21 -2 -38 -23 -38 -19 0 -27 29 -12 43 11 11
31 8 35 -5z m-1001 -35 c-12 -20 -14 -14 -5 12 4 9 9 14 11 11 3 -2 0 -13 -6
-23z m1059 -99 c-5 -13 -12 -24 -15 -24 -2 0 0 12 5 26 12 31 12 37 1 30 -5
-3 -9 13 -9 37 l0 42 13 -44 c9 -29 11 -51 5 -67z m-1027 89 c-18 -7 -16 -23
2 -23 8 0 15 4 15 9 0 5 7 11 15 15 19 7 19 4 -3 -22 -16 -19 -21 -20 -37 -8
-19 13 -13 37 8 35 9 0 9 -2 0 -6z m124 -139 c-3 -3 -13 8 -21 25 -23 43 -19
52 5 13 12 -18 19 -35 16 -38z m924 6 c-8 -23 -9 -23 -9 10 0 19 3 40 7 45 10
17 12 -29 2 -55z m-965 13 c-7 -7 -26 7 -26 19 0 6 6 6 15 -2 9 -7 13 -15 11
-17z m34 -53 c0 -5 -4 -10 -10 -10 -5 0 -10 5 -10 10 0 6 5 10 10 10 6 0 10
-4 10 -10z m898 -15 c-3 -3 -9 2 -12 12 -6 14 -5 15 5 6 7 -7 10 -15 7 -18z
m-798 -62 c0 -14 -2 -15 -9 -5 -6 10 -10 7 -15 -12 -3 -14 -11 -26 -17 -26 -6
0 -8 6 -5 13 3 6 9 20 12 30 4 9 13 17 20 17 8 0 14 -8 14 -17z m800 -3 c0 -5
-4 -10 -10 -10 -5 0 -10 5 -10 10 0 6 5 10 10 10 6 0 10 -4 10 -10z m10 -34
c0 -3 -4 -8 -10 -11 -5 -3 -10 -1 -10 4 0 6 5 11 10 11 6 0 10 -2 10 -4z
m-833 -28 c1 -7 4 -29 7 -48 l7 -35 -15 39 c-8 22 -13 43 -10 48 7 11 11 10
11 -4z m1009 -77 c-5 -2 -15 4 -23 15 -21 28 -15 35 10 11 12 -12 18 -24 13
-26z m39 18 c14 -22 -3 -18 -26 7 -23 25 -23 26 -2 15 12 -6 25 -16 28 -22z
m47 -51 c14 -14 16 -23 9 -36 -7 -10 -11 -12 -11 -4 0 7 -11 23 -25 36 -19 18
-21 23 -8 23 9 0 25 -9 35 -19z m-1002 -13 c0 -8 -4 -15 -10 -15 -5 0 -10 7
-10 15 0 8 5 15 10 15 6 0 10 -7 10 -15z m970 -21 c0 -16 -45 -20 -55 -4 -4 6
-3 10 2 9 24 -4 43 2 37 13 -4 7 -3 8 4 4 7 -4 12 -14 12 -22z m-905 -25 c-4
-5 -1 -9 4 -9 14 0 14 -37 1 -45 -5 -3 -10 2 -10 12 0 10 -3 29 -7 42 -4 17
-3 22 6 17 6 -4 9 -12 6 -17z m1009 -11 c20 -39 20 -44 1 -28 -8 7 -15 18 -15
26 0 7 -8 18 -17 23 -16 9 -16 10 -1 11 9 0 24 -14 32 -32z m-1084 7 c-10 -12
-10 -19 -2 -27 16 -16 15 -35 -1 -41 -10 -4 -13 2 -9 20 4 20 2 24 -8 18 -10
-6 -12 -4 -7 9 4 10 7 22 7 27 0 5 7 9 16 9 14 0 14 -3 4 -15z m1143 -87 c-13
-14 -13 -20 -3 -33 8 -10 9 -15 1 -15 -6 0 -11 5 -11 11 0 6 -6 9 -12 6 -8 -3
-13 4 -13 19 0 17 6 24 19 24 16 0 17 2 5 17 -13 15 -12 15 8 2 21 -12 21 -15
6 -31z m-73 -8 c0 -5 -7 -10 -16 -10 -8 0 -12 5 -9 10 3 6 10 10 16 10 5 0 9
-4 9 -10z m128 -46 c-4 -3 -15 3 -26 14 -11 11 -18 23 -14 26 3 4 15 -2 26
-13 11 -11 17 -23 14 -27z m-1187 -9 c7 -14 7 -38 1 -70 l-10 -50 -1 51 c0 28
-3 67 -6 85 -3 19 -3 27 1 19 3 -8 10 -24 15 -35z m66 -27 c-3 -8 -6 -5 -6 6
-1 11 2 17 5 13 3 -3 4 -12 1 -19z m1173 -43 c-1 -17 -40 36 -40 54 0 10 7 6
20 -14 11 -16 20 -34 20 -40z m-1223 -17 c-3 -8 -6 -5 -6 6 -1 11 2 17 5 13 3
-3 4 -12 1 -19z m39 -36 c-9 -28 -36 -37 -36 -12 0 11 7 20 15 20 8 0 15 5 15
12 0 6 3 9 6 5 3 -3 3 -14 0 -25z m1155 -9 c-11 -5 -11 -7 0 -14 11 -7 10 -9
-3 -9 -18 0 -23 11 -11 23 3 4 11 7 17 6 6 0 5 -3 -3 -6z m-1081 -27 c0 -11
-19 -15 -25 -6 -3 5 1 10 9 10 9 0 16 -2 16 -4z m-56 -34 c3 -5 -1 -9 -9 -9
-8 0 -12 4 -9 9 3 4 7 8 9 8 2 0 6 -4 9 -8z m154 -15 c15 4 15 3 2 -6 -22 -15
-30 -14 -29 7 0 9 3 12 5 5 3 -7 13 -9 22 -6z m-114 -38 c-3 -5 6 -9 20 -9 29
0 38 -10 26 -30 -7 -11 -13 -11 -32 -2 -13 7 -16 11 -7 8 9 -2 22 0 30 5 10 6
3 9 -21 9 -28 0 -36 4 -37 19 -1 13 3 18 13 14 7 -3 11 -9 8 -14z m-41 -6 c-7
-2 -19 -2 -25 0 -7 3 -2 5 12 5 14 0 19 -2 13 -5z m1167 -43 c0 -5 -4 -10 -10
-10 -5 0 -10 5 -10 10 0 6 5 10 10 10 6 0 10 -4 10 -10z m-975 -33 c6 0 21 3
35 7 24 6 24 6 -2 -9 -26 -14 -30 -14 -55 0 -16 9 -19 13 -8 9 11 -3 25 -7 30
-7z m132 -89 c2 -22 1 -22 -26 1 l-22 19 24 -2 c14 0 24 -8 24 -18z m1013 1
c0 -11 -4 -17 -10 -14 -5 3 -10 13 -10 21 0 8 5 14 10 14 6 0 10 -9 10 -21z
m-934 -84 c2 -22 1 -23 -12 -11 -8 8 -11 22 -8 31 8 20 17 12 20 -20z m944 -6
c0 -16 -5 -29 -11 -29 -5 0 -8 4 -5 9 4 5 2 21 -3 35 -8 20 -7 24 4 19 9 -3
15 -18 15 -34z m-32 -34 c-3 -14 -1 -28 3 -31 12 -7 12 -54 0 -54 -12 0 -22
57 -15 86 8 32 18 31 12 -1z m-863 -34 c-4 -11 -1 -10 14 3 19 17 19 17 14 -3
-3 -12 -9 -24 -14 -27 -5 -3 -2 -19 7 -35 8 -17 14 -33 12 -37 -2 -4 -16 20
-33 53 -26 54 -28 61 -12 61 11 0 16 -5 12 -15z m929 -65 c-3 -15 -8 -25 -11
-23 -2 3 -1 17 3 31 3 15 8 25 11 23 2 -3 1 -17 -3 -31z m-81 -137 c-4 -13 -9
-17 -15 -11 -11 11 -3 32 12 32 4 0 6 -9 3 -21z m-768 -69 c7 -49 -1 -110 -13
-110 -4 0 -7 36 -7 80 0 90 10 105 20 30z m24 18 c0 -28 -2 -30 -9 -13 -12 28
-12 45 0 45 6 0 10 -15 9 -32z m831 -114 c3 -41 2 -74 -2 -74 -5 0 -8 19 -8
43 0 23 -3 60 -7 82 -3 23 -2 37 3 32 5 -5 11 -42 14 -83z m-823 44 c-3 -8 -6
-5 -6 6 -1 11 2 17 5 13 3 -3 4 -12 1 -19z m-15 -60 c-6 -6 -7 0 -4 19 5 21 7
23 10 9 2 -10 0 -22 -6 -28z m790 -123 c3 -13 1 -22 -3 -19 -9 5 -13 44 -5 44
2 0 6 -11 8 -25z m35 -7 c-3 -8 -6 -5 -6 6 -1 11 2 17 5 13 3 -3 4 -12 1 -19z
m-900 -40 c-3 -8 -6 -5 -6 6 -1 11 2 17 5 13 3 -3 4 -12 1 -19z m13 -53 c-10
-12 -14 -12 -26 0 -16 16 -18 35 -4 35 6 0 10 -5 10 -11 0 -20 20 2 21 24 2
16 3 15 6 -6 3 -16 -1 -35 -7 -42z m840 -23 c0 -15 -2 -15 -10 -2 -13 20 -13
33 0 25 6 -3 10 -14 10 -23z m-860 -32 c0 -5 -5 -10 -11 -10 -5 0 -7 5 -4 10
3 6 8 10 11 10 2 0 4 -4 4 -10z m900 -20 c0 -5 -8 -10 -17 -10 -15 0 -16 2 -3
10 19 12 20 12 20 0z m-920 -15 c0 -8 -2 -15 -4 -15 -2 0 -6 7 -10 15 -3 8 -1
15 4 15 6 0 10 -7 10 -15z m-47 -2 c-7 -2 -19 -2 -25 0 -7 3 -2 5 12 5 14 0
19 -2 13 -5z m-35 -30 c-9 -10 -18 -27 -20 -38 -3 -16 -5 -15 -10 8 -4 19 -1
27 8 27 8 0 14 5 14 10 0 6 5 10 12 10 7 0 5 -7 -4 -17z m25 -31 c-20 -21 -28
-20 -20 3 4 8 13 15 22 15 13 0 12 -3 -2 -18z m904 -4 c-3 -8 -6 -5 -6 6 -1
11 2 17 5 13 3 -3 4 -12 1 -19z m17 -60 c-4 -6 -10 -5 -15 3 -14 22 -10 33 6
19 8 -7 12 -17 9 -22z m-1074 -13 c-7 -8 -17 -15 -22 -15 -6 0 -5 7 2 15 7 8
17 15 22 15 6 0 5 -7 -2 -15z m93 -4 c-6 -23 -29 -35 -39 -20 -7 12 14 39 31
39 8 0 11 -8 8 -19z m-155 -24 c-17 -18 -53 -37 -81 -44 -36 -8 -161 -23 -165
-18 -2 2 18 6 45 10 78 10 131 24 165 44 39 23 55 26 36 8z m1062 -7 c-6 -11
-13 -20 -15 -20 -2 0 -9 9 -15 20 -9 18 -8 20 15 20 23 0 24 -2 15 -20z m-70
-2 c0 -4 -7 -8 -15 -8 -8 0 -15 4 -15 8 0 5 7 9 15 9 8 0 15 -4 15 -9z m-3
-48 c-11 -19 -12 -19 -22 1 -6 11 -14 16 -18 13 -4 -4 -7 2 -7 14 0 19 2 20
30 6 26 -13 28 -18 17 -34z m-1007 5 c-7 -8 -9 -15 -4 -15 5 0 1 -5 -8 -11
-21 -11 -59 3 -39 15 6 4 11 2 11 -3 0 -19 18 -12 25 9 3 11 11 20 17 20 6 0
6 -6 -2 -15z m-133 -21 c-3 -3 -12 -4 -19 -1 -8 3 -5 6 6 6 11 1 17 -2 13 -5z
m60 0 c-3 -3 -12 -4 -19 -1 -8 3 -5 6 6 6 11 1 17 -2 13 -5z m1105 -35 c-3
-22 -7 -27 -13 -18 -6 10 -9 7 -10 -11 0 -23 -1 -23 -8 -5 -9 22 -3 46 13 57
19 13 23 9 18 -23z m49 -34 c-13 -25 -28 -42 -34 -38 -5 3 -3 10 7 15 9 5 16
16 16 24 0 8 -4 13 -9 10 -5 -4 -7 3 -4 14 6 23 18 26 27 8 4 -7 4 -2 2 11 -4
18 -2 21 7 12 9 -9 6 -22 -12 -56z m-1198 28 c-7 -2 -19 -2 -25 0 -7 3 -2 5
12 5 14 0 19 -2 13 -5z m-46 -29 c-3 -3 -12 -4 -19 -1 -8 3 -5 6 6 6 11 1 17
-2 13 -5z m128 -4 c-7 -11 8 -14 19 -3 11 12 37 12 34 1 -5 -13 -68 -22 -68
-10 0 9 10 22 17 22 2 0 1 -4 -2 -10z m1023 -33 c2 -10 -3 -17 -12 -17 -9 0
-14 8 -13 20 2 24 21 21 25 -3z m37 -47 c3 -5 -3 -10 -15 -10 -12 0 -18 5 -15
10 3 6 10 10 15 10 5 0 12 -4 15 -10z m-40 -80 c-3 -10 -14 -25 -25 -35 -19
-17 -20 -17 -20 1 -1 16 -4 15 -25 -8 -23 -27 -43 -38 -30 -18 8 13 -19 52
-30 42 -5 -4 -5 -2 -1 5 5 9 14 9 36 2 20 -8 35 -7 50 1 18 10 21 9 15 -2 -3
-7 1 -4 9 6 17 22 21 41 7 32 -5 -4 -7 4 -3 16 l5 22 9 -24 c5 -12 6 -31 3
-40z m30 51 c3 -5 1 -12 -5 -16 -5 -3 -10 1 -10 9 0 18 6 21 15 7z m-178 -87
c-3 -3 -12 -4 -19 -1 -8 3 -5 6 6 6 11 1 17 -2 13 -5z m93 -34 c0 -5 -5 -10
-11 -10 -5 0 -7 5 -4 10 3 6 8 10 11 10 2 0 4 -4 4 -10z m-77 -32 c-8 -15 -22
-28 -31 -28 -15 1 -15 2 1 11 24 14 22 32 -3 24 -11 -3 -20 -2 -20 3 0 16 13
22 40 20 26 -2 26 -3 13 -30z m55 -2 c-7 -8 -15 -12 -17 -11 -5 6 10 25 20 25
5 0 4 -6 -3 -14z m-171 -77 c-14 -8 -22 -8 -30 0 -8 8 -3 11 19 11 25 -1 27
-2 11 -11z m67 -30 c-21 -22 -40 -35 -42 -29 -5 14 17 40 34 40 7 0 11 6 8 13
-3 8 4 13 17 14 19 2 17 -3 -17 -38z m-39 11 c-3 -5 -11 -10 -16 -10 -6 0 -7
5 -4 10 3 6 11 10 16 10 6 0 7 -4 4 -10z m-97 -12 c-2 -6 -10 -14 -16 -16 -7
-2 -10 2 -6 12 7 18 28 22 22 4z m71 -52 c-13 -14 -67 -15 -73 -1 -4 10 4 12
31 8 26 -4 34 -3 29 5 -4 7 -4 17 0 24 5 8 10 6 15 -8 4 -10 3 -23 -2 -28z
m-82 -38 c-3 -8 -6 -5 -6 6 -1 11 2 17 5 13 3 -3 4 -12 1 -19z m-62 -52 c12
-12 12 -16 -2 -28 -15 -11 -16 -11 -10 5 3 9 2 17 -3 17 -6 0 -10 5 -10 10 0
14 9 12 25 -4z m-85 -26 c0 -5 -2 -10 -4 -10 -3 0 -8 5 -11 10 -3 6 -1 10 4
10 6 0 11 -4 11 -10z m-32 -48 c2 -7 8 -12 14 -12 6 0 7 7 4 16 -4 10 -1 14 6
12 22 -8 18 -24 -9 -38 -16 -8 -39 -22 -52 -32 -13 -10 -28 -18 -32 -18 -14 0
30 40 54 50 20 7 20 9 4 15 -11 5 -25 1 -37 -10 -12 -11 -20 -13 -20 -7 0 7 5
12 11 12 6 0 9 6 6 13 -3 8 4 12 21 11 14 0 28 -6 30 -12z m-208 -56 c0 -2 -9
-6 -20 -9 -11 -3 -18 -1 -14 4 5 9 34 13 34 5z m-5 -26 c3 -5 1 -10 -4 -10 -6
0 -11 5 -11 10 0 6 2 10 4 10 3 0 8 -4 11 -10z m-210 -10 c-3 -5 -12 -10 -18
-10 -7 0 -6 4 3 10 19 12 23 12 15 0z m152 -3 c7 0 10 -4 7 -9 -3 -4 0 -8 7
-8 7 0 10 -3 6 -6 -3 -3 -12 -2 -19 2 -13 8 -18 10 -50 12 -10 1 -18 7 -18 13
0 7 10 9 28 4 15 -4 32 -8 39 -8z m76 -27 c-15 -9 -30 -13 -32 -8 -5 13 31 37
47 31 9 -4 4 -11 -15 -23z m-175 -11 c-2 -7 -22 -14 -43 -16 -39 -3 -39 -3
-15 11 31 17 63 20 58 5z m65 -16 c3 -5 -6 -9 -20 -10 -19 -1 -22 1 -12 8 17
11 26 11 32 2z m-83 -23 c-38 -6 -80 -2 -80 9 0 3 26 4 57 2 52 -4 54 -5 23
-11z"/>
<path d="M7590 3558 c0 -4 14 -8 30 -8 17 0 30 2 30 4 0 2 -13 6 -30 8 -16 3
-30 1 -30 -4z"/>
<path d="M9085 2958 c-4 -35 -3 -73 2 -85 5 -15 9 5 11 63 1 46 0 84 -2 84 -2
0 -7 -28 -11 -62z"/>
<path d="M9077 2793 c-4 -3 -7 -20 -6 -37 l1 -31 9 34 c10 33 8 47 -4 34z"/>
<path d="M4620 1556 c0 -2 7 -7 16 -10 8 -3 12 -2 9 4 -6 10 -25 14 -25 6z"/>
</g>
</svg>
