<?xml version="1.0" standalone="no"?>
<!DOCTYPE svg PUBLIC "-//W3C//DTD SVG 20010904//EN"
 "http://www.w3.org/TR/2001/REC-SVG-20010904/DTD/svg10.dtd">
<svg version="1.0" xmlns="http://www.w3.org/2000/svg"
 width="200.000000pt" height="200.000000pt" viewBox="0 0 200.000000 200.000000"
 preserveAspectRatio="xMidYMid meet">

<g transform="translate(0.000000,200.000000) scale(0.100000,-0.100000)"
fill="#000000" stroke="none">
<path d="M0 1000 l0 -1000 1000 0 1000 0 0 1000 0 1000 -1000 0 -1000 0 0
-1000z m477 216 c51 -26 73 -62 73 -118 0 -97 -49 -138 -177 -146 l-73 -5 0
-83 0 -84 -40 0 -40 0 0 223 c0 123 3 227 8 231 13 14 215 0 249 -18z m371
-152 c3 -198 -5 -236 -57 -271 -38 -26 -115 -31 -170 -12 -34 12 -38 25 -18
53 11 15 19 16 50 8 41 -12 74 -6 100 16 15 13 17 36 17 192 0 97 3 180 7 184
4 4 21 6 38 4 l30 -3 3 -171z m223 91 c29 -47 55 -82 59 -78 4 4 31 43 59 86
50 74 53 77 91 77 22 0 40 -2 40 -5 0 -2 -31 -53 -70 -111 -38 -59 -70 -111
-70 -115 0 -4 32 -55 70 -113 39 -59 70 -109 70 -111 0 -3 -19 -5 -42 -5 -43
1 -43 1 -97 87 l-55 86 -21 -27 c-12 -15 -37 -54 -56 -87 -33 -57 -35 -59 -77
-59 -50 0 -53 -8 40 137 68 105 69 84 -19 221 -29 45 -53 87 -53 92 0 6 18 10
39 10 39 0 40 -2 92 -85z m519 -85 l115 -165 3 168 2 168 33 -3 32 -3 3 -227
2 -228 -37 0 c-38 0 -39 1 -148 161 l-110 161 -3 -161 -2 -161 -40 0 -40 0 0
223 c0 123 3 227 7 231 4 4 21 6 37 4 27 -3 44 -22 146 -168z"/>
<path d="M300 1095 l0 -75 70 0 c83 0 110 18 110 74 0 53 -36 76 -116 76 l-64
0 0 -75z"/>
</g>
</svg>
