<?xml version="1.0" standalone="no"?>
<!DOCTYPE svg PUBLIC "-//W3C//DTD SVG 20010904//EN"
 "http://www.w3.org/TR/2001/REC-SVG-20010904/DTD/svg10.dtd">
<svg version="1.0" xmlns="http://www.w3.org/2000/svg"
 width="300.000000pt" height="300.000000pt" viewBox="0 0 300.000000 300.000000"
 preserveAspectRatio="xMidYMid meet">
  <rect width="100%" height="100%" fill="#000000"/>

<g transform="translate(0.000000,300.000000) scale(0.100000,-0.100000)"
fill="#ffffff" stroke="none">
<path d="M1385 2950 c-127 -11 -204 -26 -330 -67 -349 -111 -657 -369 -831
-697 -261 -490 -220 -1087 104 -1540 74 -103 227 -256 329 -329 444 -316 1023
-359 1501 -112 262 136 481 352 618 609 261 490 220 1087 -104 1540 -74 103
-227 256 -329 329 -276 197 -626 294 -958 267z m-219 -624 l80 -26 60 22 c50
19 80 22 199 22 117 0 151 -3 204 -21 62 -21 64 -21 121 -3 103 33 176 43 281
38 55 -3 104 -9 110 -15 9 -9 -263 -243 -317 -271 l-25 -13 39 -38 c48 -46 66
-96 60 -162 -16 -166 -223 -227 -332 -99 l-26 32 0 -51 c0 -44 4 -52 29 -71
39 -27 105 -50 145 -50 18 0 55 7 82 15 149 44 225 227 150 360 l-27 50 31 28
c17 15 37 26 43 24 7 -2 26 -30 42 -62 27 -53 30 -68 30 -154 0 -85 -3 -103
-28 -153 -36 -74 -119 -150 -194 -178 -46 -17 -75 -21 -140 -19 l-82 3 -83
-75 c-46 -41 -89 -79 -96 -83 -9 -5 -43 19 -102 73 l-88 81 -86 0 c-155 0
-263 65 -328 198 -30 60 -33 75 -33 157 0 90 16 147 56 197 13 16 16 15 47
-13 l33 -30 -22 -46 c-41 -86 -27 -197 37 -280 58 -77 207 -115 295 -76 l45
20 64 -60 65 -59 3 221 c1 141 -1 229 -8 241 -13 25 -52 35 -79 20 -19 -10
-21 -19 -21 -120 0 -103 -1 -110 -26 -140 -69 -82 -200 -92 -277 -22 -81 73
-73 231 13 292 l31 22 -30 19 c-17 10 -98 75 -181 143 -144 119 -150 126 -123
132 15 3 33 8 38 10 6 2 62 2 125 0 89 -3 133 -10 196 -30z m978 -769 c22 -16
25 -65 5 -78 -54 -34 -105 26 -62 73 19 21 33 23 57 5z m-381 -284 l97 -6 0
-99 0 -98 -55 0 -55 0 -6 40 c-8 50 -31 64 -96 58 -53 -6 -87 -30 -116 -83
-24 -43 -23 -217 1 -262 31 -59 55 -73 119 -73 l58 0 0 55 c0 52 -1 55 -25 55
-23 0 -25 3 -25 50 l0 51 128 -3 127 -3 3 -47 c3 -42 1 -48 -16 -48 -27 0 -32
-18 -32 -121 l0 -89 -77 -1 c-282 -4 -264 -6 -323 27 -103 57 -148 162 -137
318 9 137 73 227 189 267 58 20 95 22 241 12z m-1013 -48 c0 -43 -1 -45 -30
-45 -17 0 -30 -5 -30 -12 0 -25 64 -298 70 -298 3 0 28 90 55 200 l49 200 63
0 62 0 10 -37 c6 -21 27 -108 47 -193 20 -85 40 -161 43 -168 9 -16 74 248 69
280 -2 17 -11 24 -30 26 -26 3 -28 7 -28 48 l0 44 130 0 130 0 0 -45 c0 -37
-3 -45 -19 -45 -10 0 -23 -6 -29 -13 -8 -10 -84 -289 -130 -477 l-8 -35 -91
-3 -91 -3 -43 178 -43 178 -42 -170 c-24 -93 -43 -173 -43 -177 -1 -5 -41 -8
-90 -8 -77 0 -90 3 -95 18 -2 9 -30 123 -62 252 -31 129 -61 241 -67 248 -5 6
-18 12 -28 12 -16 0 -19 8 -19 45 l0 45 145 0 145 0 0 -45z m1460 0 c0 -45 0
-45 -35 -45 l-35 0 0 -170 c0 -230 13 -260 114 -260 33 0 52 6 73 24 l28 24 3
191 3 191 -35 0 c-36 0 -36 0 -36 45 l0 45 125 0 125 0 0 -44 c0 -39 -3 -45
-22 -48 -23 -3 -23 -5 -28 -193 -4 -160 -8 -196 -24 -225 -48 -90 -97 -114
-231 -115 -127 0 -183 24 -230 100 l-30 48 -5 191 c-5 189 -5 191 -27 194 -20
3 -23 9 -23 48 l0 44 145 0 145 0 0 -45z"/>
<path d="M1151 1959 c-26 -25 -31 -39 -31 -76 0 -38 5 -50 34 -79 28 -28 42
-34 76 -34 34 0 48 6 76 34 24 24 34 43 34 65 l0 30 -25 -24 c-29 -30 -45 -31
-79 -4 -39 31 -30 90 17 109 18 7 12 9 -25 9 -39 1 -51 -4 -77 -30z"/>
<path d="M1732 1974 c-26 -18 -52 -65 -52 -94 0 -55 57 -110 115 -110 58 0
115 57 115 116 0 13 -4 11 -18 -7 -21 -25 -71 -30 -96 -9 -26 21 -20 75 10 99
l27 21 -39 0 c-22 0 -50 -7 -62 -16z"/>
<path d="M2083 1534 c-9 -24 10 -49 38 -49 20 0 24 5 24 30 0 25 -4 30 -28 33
-18 2 -29 -2 -34 -14z m55 -18 c-2 -18 -6 -22 -14 -15 -8 7 -14 6 -17 -3 -3
-7 -6 -1 -6 15 -1 21 4 27 19 27 15 0 19 -6 18 -24z"/>
</g>
</svg>
